<svg width="64" height="64" viewBox="0 0 64 64" fill="none" xmlns="http://www.w3.org/2000/svg">
<path d="M32 61.9699C47.8396 61.9699 60.68 49.1294 60.68 33.2899C60.68 17.4503 47.8396 4.60986 32 4.60986C16.1605 4.60986 3.32004 17.4503 3.32004 33.2899C3.32004 49.1294 16.1605 61.9699 32 61.9699Z" fill="#D68F30"/>
<path d="M5.27 40.7402V43.6702C5.57 44.4452 5.905 45.2102 6.27 45.9502V40.7402H5.27Z" fill="#BC6F00"/>
<path d="M8.54004 46.2549V49.7749C8.94004 50.3399 9.35504 50.8949 9.79004 51.4299V46.2549H8.54004Z" fill="#BC6F00"/>
<path d="M12.8701 50.855V54.65C13.3551 55.085 13.8551 55.5 14.3701 55.9V50.855H12.8701Z" fill="#BC6F00"/>
<path d="M18.2 54.35V58.43C18.69 58.7 19.19 58.955 19.7 59.2V54.35H18.2Z" fill="#BC6F00"/>
<path d="M24.2451 56.5751V60.8951C24.7401 61.0351 25.2401 61.1601 25.7451 61.2751V56.5751H24.2451Z" fill="#BC6F00"/>
<path d="M31.3201 57.3451V61.9501C31.5451 61.9551 31.7701 61.9651 32.0001 61.9651C32.2751 61.9651 32.5501 61.9501 32.8201 61.9451V57.3451H31.3201Z" fill="#BC6F00"/>
<path d="M38.395 56.5399V61.2399C38.9 61.1249 39.4 60.9949 39.895 60.8549V56.5399H38.395Z" fill="#BC6F00"/>
<path d="M44.425 54.2852V59.1402C44.935 58.8952 45.435 58.6302 45.925 58.3552V54.2852H44.425Z" fill="#BC6F00"/>
<path d="M49.74 50.7598V55.8098C50.2547 55.4076 50.755 54.9873 51.24 54.5498V50.7598H49.74Z" fill="#BC6F00"/>
<path d="M55.5449 46.1449H54.2949V51.3199C54.7299 50.7799 55.1499 50.2249 55.5449 49.6549V46.1449Z" fill="#BC6F00"/>
<path d="M58.7949 40.6099H57.7949V45.8299C58.1599 45.0749 58.4949 44.2999 58.7949 43.5149V40.6099Z" fill="#BC6F00"/>
<path d="M32 59.3898C47.8396 59.3898 60.68 46.5493 60.68 30.7098C60.68 14.8703 47.8396 2.02979 32 2.02979C16.1605 2.02979 3.32004 14.8703 3.32004 30.7098C3.32004 46.5493 16.1605 59.3898 32 59.3898Z" fill="#FFF176"/>
<path d="M32 56.835C46.4284 56.835 58.125 45.1384 58.125 30.71C58.125 16.2815 46.4284 4.58496 32 4.58496C17.5716 4.58496 5.875 16.2815 5.875 30.71C5.875 45.1384 17.5716 56.835 32 56.835Z" fill="#F2BC1A"/>
<path d="M5.82496 31.7102C5.63996 28.2702 6.23496 24.7802 7.43496 21.5102C8.68496 18.2502 10.6 15.2352 13.015 12.6752C17.865 7.54516 24.905 4.57016 32 4.53516C39.095 4.57516 46.14 7.54516 50.98 12.6802C53.4 15.2352 55.31 18.2552 56.56 21.5102C57.765 24.7852 58.36 28.2702 58.17 31.7102H58.07C58.0601 28.2785 57.3808 24.8817 56.07 21.7102C54.7569 18.5422 52.8395 15.6603 50.425 13.2252C48.0089 10.7924 45.1377 8.85902 41.975 7.53516C38.8133 6.21508 35.4211 5.53536 31.995 5.53536C28.5688 5.53536 25.1766 6.21508 22.015 7.53516C18.8522 8.85902 15.981 10.7924 13.565 13.2252C11.1488 15.659 9.23121 18.5412 7.91996 21.7102C6.60916 24.8817 5.92979 28.2785 5.91996 31.7102H5.82496Z" fill="#E08F00"/>
<path d="M32 2.03516C16.16 2.03516 3.32004 14.8752 3.32004 30.7152C3.32004 46.5552 16.16 59.3952 32 59.3952C47.84 59.3952 60.68 46.5552 60.68 30.7152C60.68 14.8752 47.84 2.03516 32 2.03516ZM32 56.8402C17.57 56.8402 5.87504 45.1452 5.87504 30.7152C5.87504 16.2802 17.57 4.58516 32 4.58516C46.43 4.58516 58.125 16.2802 58.125 30.7102C58.125 45.1402 46.43 56.8402 32 56.8402Z" fill="#FFF176"/>
<path d="M18.995 10.6748L19.63 12.6398L21.7 11.8498V12.6398L20.025 13.8548L20.665 15.0248V15.8198L18.995 14.6048L17.32 15.8198V15.0248L17.96 13.8548L16.29 12.6398V11.8498L18.355 12.6398L18.995 10.6748Z" fill="#D38200"/>
<path d="M11.005 21.9551L11.645 23.9201L13.71 23.1301V23.9201L12.04 25.1351L12.68 26.3101V27.1001L11.005 25.8851L9.33504 27.1001V26.3101L9.97504 25.1351L8.30004 23.9201V23.1301L10.37 23.9201L11.005 21.9551Z" fill="#D38200"/>
<path d="M10.77 35.8599L11.41 37.8249L13.475 37.0349V37.8249L11.805 39.0399L12.445 40.2149V41.0049L10.77 39.7899L9.09996 41.0049V40.2149L9.73996 39.0399L8.06496 37.8249V37.0349L10.135 37.8249L10.77 35.8599Z" fill="#D38200"/>
<path d="M19.3 46.8999L19.94 48.8649L22.005 48.0749V48.8649L20.335 50.0799L20.975 51.2499V52.0449L19.3 50.8299L17.63 52.0449V51.2499L18.27 50.0799L16.595 48.8649V48.0749L18.665 48.8649L19.3 46.8999Z" fill="#D38200"/>
<path d="M45.005 10.6748L44.37 12.6398L42.3 11.8498V12.6398L43.975 13.8548L43.335 15.0248V15.8198L45.005 14.6048L46.68 15.8198V15.0248L46.04 13.8548L47.71 12.6398V11.8498L45.645 12.6398L45.005 10.6748Z" fill="#D38200"/>
<path d="M52.995 21.9551L52.355 23.9201L50.29 23.1301V23.9201L51.96 25.1351L51.32 26.3101V27.1001L52.995 25.8851L54.665 27.1001V26.3101L54.025 25.1351L55.7 23.9201V23.1301L53.63 23.9201L52.995 21.9551Z" fill="#D38200"/>
<path d="M53.2299 35.8599L52.5899 37.8249L50.5249 37.0349V37.8249L52.1949 39.0399L51.5549 40.2149V41.0049L53.2299 39.7899L54.8999 41.0049V40.2149L54.2599 39.0399L55.9349 37.8249V37.0349L53.8649 37.8249L53.2299 35.8599Z" fill="#D38200"/>
<path d="M44.7001 46.8999L44.0601 48.8649L41.9951 48.0749V48.8649L43.6651 50.0799L43.0251 51.2499V52.0449L44.7001 50.8299L46.3701 52.0449V51.2499L45.7301 50.0799L47.4051 48.8649V48.0749L45.3351 48.8649L44.7001 46.8999Z" fill="#D38200"/>
<path d="M44.7001 46.105L45.3351 48.07H47.4051L45.7301 49.285L46.3701 51.25L44.7001 50.035L43.0251 51.25L43.6651 49.285L41.9951 48.07H44.0601L44.7001 46.105Z" fill="#FFF176"/>
<path d="M53.2301 35.0698L53.8651 37.0348H55.9351L54.2601 38.2498L54.9001 40.2148L53.2301 38.9998L51.5551 40.2148L52.1951 38.2498L50.5251 37.0348H52.5901L53.2301 35.0698Z" fill="#FFF176"/>
<path d="M52.995 21.165L53.63 23.13H55.7L54.025 24.345L54.665 26.31L52.995 25.095L51.32 26.31L51.96 24.345L50.29 23.13H52.355L52.995 21.165Z" fill="#FFF176"/>
<path d="M45.005 9.87988L45.645 11.8449H47.71L46.04 13.0599L46.68 15.0249L45.005 13.8099L43.335 15.0249L43.975 13.0599L42.3 11.8449H44.37L45.005 9.87988Z" fill="#FFF176"/>
<path d="M32.0251 51.25L32.6651 53.215L34.7301 52.425V53.215L33.0601 54.43L33.7001 55.605V56.395L32.0251 55.18L30.3551 56.395V55.605L30.9951 54.43L29.3201 53.215V52.425L31.3901 53.215L32.0251 51.25Z" fill="#D38200"/>
<path d="M32.0251 50.1997L32.6651 52.1647H34.7301L33.0601 53.3797L33.7001 55.3447L32.0251 54.1297L30.3551 55.3447L30.9951 53.3797L29.3201 52.1647H31.3901L32.0251 50.1997Z" fill="#FFF176"/>
<path d="M32.0251 6.44482L32.6651 8.40982L34.7301 7.61982V8.40982L33.0601 9.62482L33.7001 10.7998V11.5898L32.0251 10.3748L30.3551 11.5898V10.7998L30.9951 9.62482L29.3201 8.40982V7.61982L31.3901 8.40982L32.0251 6.44482Z" fill="#D38200"/>
<path d="M32.0251 5.65479L32.6651 7.61978H34.7301L33.0601 8.83478L33.7001 10.7998L32.0251 9.58478L30.3551 10.7998L30.9951 8.83478L29.3201 7.61978H31.3901L32.0251 5.65479Z" fill="#FFF176"/>
<path d="M19.3 46.105L18.665 48.07H16.595L18.27 49.285L17.63 51.25L19.3 50.035L20.975 51.25L20.335 49.285L22.005 48.07H19.94L19.3 46.105Z" fill="#FFF176"/>
<path d="M10.77 35.0698L10.135 37.0348H8.06496L9.73996 38.2498L9.09996 40.2148L10.77 38.9998L12.445 40.2148L11.805 38.2498L13.475 37.0348H11.41L10.77 35.0698Z" fill="#FFF176"/>
<path d="M11.0051 21.165L10.3701 23.13H8.30006L9.97506 24.345L9.33506 26.31L11.0051 25.095L12.6801 26.31L12.0401 24.345L13.7101 23.13H11.6451L11.0051 21.165Z" fill="#FFF176"/>
<path d="M18.995 9.87988L18.355 11.8449H16.29L17.96 13.0599L17.32 15.0249L18.995 13.8099L20.665 15.0249L20.025 13.0599L21.7 11.8449H19.63L18.995 9.87988Z" fill="#FFF176"/>
<path d="M28.6192 29.0384C28.6192 29.8205 28.4397 30.5385 28.0807 31.1924C27.7217 31.8334 27.1704 32.3527 26.4268 32.7501C25.6832 33.1476 24.7601 33.3463 23.6575 33.3463H21.619V38.1926H18.3304V24.6921H23.6575C24.7345 24.6921 25.6447 24.878 26.3884 25.2498C27.132 25.6217 27.6897 26.1345 28.0615 26.7884C28.4333 27.4422 28.6192 28.1923 28.6192 29.0384ZM23.4075 30.7308C24.0357 30.7308 24.5037 30.5834 24.8114 30.2885C25.1191 29.9936 25.2729 29.5769 25.2729 29.0384C25.2729 28.5 25.1191 28.0833 24.8114 27.7884C24.5037 27.4935 24.0357 27.3461 23.4075 27.3461H21.619V30.7308H23.4075Z" fill="#D38200"/>
<path d="M45.6202 24.6921V38.1926H42.3317V30.0962L39.3123 38.1926H36.6584L33.6198 30.0769V38.1926H30.3313V24.6921H34.216L38.0046 34.0386L41.7547 24.6921H45.6202Z" fill="#D38200"/>
<path d="M28.6192 28.0262C28.6192 28.8083 28.4397 29.5263 28.0807 30.1802C27.7217 30.8212 27.1704 31.3404 26.4268 31.7379C25.6832 32.1353 24.7601 32.3341 23.6575 32.3341H21.619V37.1804H18.3304V23.6799H23.6575C24.7345 23.6799 25.6447 23.8658 26.3884 24.2376C27.132 24.6094 27.6897 25.1223 28.0615 25.7762C28.4333 26.43 28.6192 27.18 28.6192 28.0262ZM23.4075 29.7186C24.0357 29.7186 24.5037 29.5712 24.8114 29.2763C25.1191 28.9814 25.2729 28.5647 25.2729 28.0262C25.2729 27.4878 25.1191 27.0711 24.8114 26.7762C24.5037 26.4813 24.0357 26.3339 23.4075 26.3339H21.619V29.7186H23.4075Z" fill="#FFF176"/>
<path d="M45.6202 23.6799V37.1804H42.3317V29.084L39.3123 37.1804H36.6584L33.6198 29.0647V37.1804H30.3313V23.6799H34.216L38.0046 33.0264L41.7547 23.6799H45.6202Z" fill="#FFF176"/>
</svg>
