<svg width="80" height="170" viewBox="0 0 80 170" fill="none" xmlns="http://www.w3.org/2000/svg">
<path d="M28.3332 169.417H12.1665C12.1665 169.417 6.6665 112.583 6.6665 111.417C7.6665 112.417 7.49984 112.75 11.6665 113.917C14.1665 116.583 31.8332 160.917 31.8332 160.917L28.3332 169.417Z" fill="black"/>
<path d="M49.1669 111.417V169.417H28.3336L11.647 113.878C17.5003 114.917 39.6669 115.75 49.1669 111.417Z" fill="black"/>
<path d="M2.93704 66.6833C1.77037 73.8267 -1.01129 97.6834 6.8337 120.083C6.93577 120.109 7.04266 120.11 7.14514 120.086C7.24763 120.062 7.34266 120.013 7.42204 119.943" stroke="black" stroke-linecap="round" stroke-linejoin="round"/>
<path d="M6.16675 68.5568C3.78842 67.3901 1.94009 66.1584 1.56509 65.2901C0.665086 63.2034 6.52342 47.4568 14.8118 43.8501" stroke="black" stroke-linecap="round" stroke-linejoin="round"/>
<path d="M31.6665 37.8684C33.6298 38.6117 35.4082 39.8684 37.0165 41.5101" stroke="black" stroke-linecap="round" stroke-linejoin="round"/>
<path d="M50.667 93.4269C50.932 103.16 50.2353 110.497 49.167 111.417C45.667 114.417 9.83364 117.25 6.66697 111.417C3.6803 105.917 0.695303 44.6985 23.0003 37.7285" stroke="black" stroke-linecap="round" stroke-linejoin="round"/>
<path d="M35.0503 43.1151C35.4312 42.6682 35.8618 42.2662 36.3336 41.9167C42.8336 37.0834 58.0003 56.4167 57.8336 59.9167C57.667 63.4167 45.0003 70.75 42.3336 70.0834C41.647 69.9167 40.307 68.4167 38.8536 66.1734" stroke="black" stroke-linecap="round" stroke-linejoin="round"/>
<path d="M23 37.7284V34.4651" stroke="black" stroke-linecap="round" stroke-linejoin="round"/>
<path d="M31.667 29.4517V40.25C31.667 41.4483 29.0153 42.035 26.647 41.925" stroke="black" stroke-linecap="round" stroke-linejoin="round"/>
<path d="M23 34.465C19.2667 32.81 16.5 26.8117 16.5 19.6667C16.497 18.017 16.6499 16.3708 16.9567 14.75" stroke="black" stroke-linecap="round" stroke-linejoin="round"/>
<path d="M25.0833 34.9168C24.3649 34.9141 23.655 34.7602 23 34.4651" stroke="black" stroke-linecap="round" stroke-linejoin="round"/>
<path d="M33.3035 24.0701C33.0079 25.8985 32.471 27.6796 31.7068 29.3667" stroke="black" stroke-linecap="round" stroke-linejoin="round"/>
<path d="M32.0466 28.5834H33.4999C35.6666 28.5834 36.6666 27.7501 39.9999 27.7501C45.8333 27.7501 53.9999 34.9167 63.9999 34.9167C74.8333 34.9167 79.3333 26.7501 79.3333 17.5834C79.3333 5.41675 67.8333 2.25008 62.3333 2.25008C55.8333 2.25008 50.4999 6.91675 43.4999 6.91675C38.4999 6.91675 33.6666 0.916748 26.6666 0.916748C17.6666 0.916748 14.8333 5.75008 14.8333 9.08341C14.8333 11.7501 16.4566 14.7501 16.9566 14.7501C17.1066 13.8684 17.9999 10.9167 18.3333 10.5834C18.4333 10.9351 19.1416 11.9251 20.2499 13.1351" stroke="black" stroke-linecap="round" stroke-linejoin="round"/>
<path d="M31.8333 19.9633C32.1172 19.7735 32.4406 19.6508 32.7789 19.6045C33.1173 19.5582 33.4618 19.5896 33.7863 19.6962C34.1107 19.8028 34.4067 19.9819 34.6516 20.2198C34.8966 20.4578 35.0842 20.7484 35.2002 21.0696C35.3162 21.3909 35.3575 21.7343 35.321 22.0739C35.2846 22.4135 35.1713 22.7403 34.9898 23.0296C34.8083 23.3189 34.5633 23.5631 34.2734 23.7436C33.9835 23.9242 33.6563 24.0364 33.3166 24.0717" stroke="black" stroke-linecap="round" stroke-linejoin="round"/>
<path d="M18.3333 72.8133C15.3433 71.0883 13.9283 67.9433 15.1667 65.7916C15.9767 64.39 17.7117 63.7566 19.65 63.9583L18.4067 55.72L8 57.29L10.6917 75.1383L20.4183 73.6716C19.6878 73.4809 18.9864 73.1921 18.3333 72.8133Z" fill="#333333"/>
<path d="M42.9301 70.1268C44.3417 73.2351 48.8017 78.9601 50.5001 81.0835C36.6667 75.0835 27.1667 69.0835 26.3334 68.2501C26.2744 68.2032 26.2047 68.1717 26.1304 68.1586C26.0562 68.1455 25.9799 68.1512 25.9084 68.1751C25.2126 66.8464 24.1438 65.7499 22.8334 65.0201C19.8434 63.2935 16.4134 63.6401 15.1667 65.7918C13.9201 67.9435 15.3334 71.0885 18.3334 72.8135C19.4 73.4423 20.5982 73.8143 21.8334 73.9001C21.882 73.9672 21.9379 74.0287 22.0001 74.0835C23.8334 75.7501 50.1667 96.0835 58.1667 96.0835C60.1667 96.0835 63.3334 92.9168 63.3334 86.5835C63.3334 84.3801 61.8467 72.2135 56.485 62.3035" stroke="black" stroke-linecap="round" stroke-linejoin="round"/>
</svg>
